<svg xmlns="http://www.w3.org/2000/svg" xmlns:xlink="http://www.w3.org/1999/xlink" width="2100" zoomAndPan="magnify" viewBox="0 0 1574.88 1199.999942" height="1600" preserveAspectRatio="xMidYMid meet" version="1.0"><defs><g/><clipPath id="d1ead110e1"><path d="M 0.507812 0.175781 L 1291 0.175781 L 1291 418 L 0.507812 418 Z M 0.507812 0.175781 " clip-rule="nonzero"/></clipPath><clipPath id="68cd199b1b"><rect x="0" width="1291" y="0" height="418"/></clipPath><clipPath id="37ccaa44ff"><rect x="0" width="264" y="0" height="413"/></clipPath><clipPath id="e3dba56141"><path d="M 373.652344 282.332031 L 419.164062 282.332031 L 419.164062 327.257812 L 373.652344 327.257812 Z M 373.652344 282.332031 " clip-rule="nonzero"/></clipPath><clipPath id="9a91c93eaf"><path d="M 0.652344 0.332031 L 46.164062 0.332031 L 46.164062 45.257812 L 0.652344 45.257812 Z M 0.652344 0.332031 " clip-rule="nonzero"/></clipPath><clipPath id="c626fabe1d"><rect x="0" width="47" y="0" height="46"/></clipPath><clipPath id="f6999e725e"><path d="M 11 380 L 1300.488281 380 L 1300.488281 451.101562 L 11 451.101562 Z M 11 380 " clip-rule="nonzero"/></clipPath><clipPath id="0eb067aad8"><rect x="0" width="1290" y="0" height="72"/></clipPath><clipPath id="89da2f94ce"><rect x="0" width="1301" y="0" height="452"/></clipPath></defs><g transform="matrix(1, 0, 0, 1, 143, 374)"><g clip-path="url(#89da2f94ce)"><g clip-path="url(#d1ead110e1)"><g transform="matrix(1, 0, 0, 1, 0, -0.00000000000017053)"><g clip-path="url(#68cd199b1b)"><g fill="#ffffff" fill-opacity="1"><g transform="translate(0.606757, 330.47127)"><g><path d="M 138.90625 4.859375 C 121.539062 4.859375 105.21875 1.675781 89.9375 -4.6875 C 74.65625 -11.050781 61.398438 -19.789062 50.171875 -30.90625 C 38.953125 -42.019531 30.039062 -55.269531 23.4375 -70.65625 C 16.84375 -86.050781 13.546875 -102.78125 13.546875 -120.84375 L 13.546875 -121.53125 C 13.546875 -139.125 16.785156 -155.675781 23.265625 -171.1875 C 29.742188 -186.695312 38.597656 -200.066406 49.828125 -211.296875 C 61.054688 -222.523438 74.539062 -231.4375 90.28125 -238.03125 C 106.019531 -244.632812 123.035156 -247.9375 141.328125 -247.9375 C 166.097656 -247.9375 186.816406 -243.191406 203.484375 -233.703125 C 220.148438 -224.210938 233.8125 -212.171875 244.46875 -197.578125 L 193.765625 -158.34375 C 186.816406 -166.90625 179.117188 -173.789062 170.671875 -179 C 162.222656 -184.21875 152.210938 -186.828125 140.640625 -186.828125 C 132.066406 -186.828125 124.25 -185.085938 117.1875 -181.609375 C 110.132812 -178.140625 104.0625 -173.507812 98.96875 -167.71875 C 93.875 -161.9375 89.878906 -155.109375 86.984375 -147.234375 C 84.085938 -139.359375 82.640625 -131.023438 82.640625 -122.234375 L 82.640625 -121.53125 C 82.640625 -112.507812 84.085938 -104.003906 86.984375 -96.015625 C 89.878906 -88.023438 93.875 -81.132812 98.96875 -75.34375 C 104.0625 -69.5625 110.132812 -64.992188 117.1875 -61.640625 C 124.25 -58.285156 132.066406 -56.609375 140.640625 -56.609375 C 153.140625 -56.609375 163.613281 -59.328125 172.0625 -64.765625 C 180.507812 -70.203125 188.320312 -77.320312 195.5 -86.125 L 246.203125 -50 C 234.859375 -34.257812 220.789062 -21.179688 204 -10.765625 C 187.21875 -0.347656 165.519531 4.859375 138.90625 4.859375 Z M 138.90625 4.859375 "/></g></g></g><g fill="#ffffff" fill-opacity="1"><g transform="translate(254.464747, 330.47127)"><g/></g></g><g fill="#ffffff" fill-opacity="1"><g transform="translate(350.648841, 330.47127)"><g/></g></g><g fill="#ffffff" fill-opacity="1"><g transform="translate(446.832934, 330.47127)"><g/></g></g><g fill="#ffffff" fill-opacity="1"><g transform="translate(543.031767, 330.47127)"><g><path d="M 117.015625 4.171875 C 95.492188 4.171875 74.894531 0.753906 55.21875 -6.078125 C 35.539062 -12.910156 18.175781 -22.921875 3.125 -36.109375 L 40.625 -80.90625 C 52.664062 -71.414062 65.34375 -64.179688 78.65625 -59.203125 C 91.96875 -54.222656 105.566406 -51.734375 119.453125 -51.734375 C 128.710938 -51.734375 135.710938 -53.238281 140.453125 -56.25 C 145.203125 -59.257812 147.578125 -63.3125 147.578125 -68.40625 L 147.578125 -69.109375 C 147.578125 -74.203125 144.859375 -78.425781 139.421875 -81.78125 C 133.984375 -85.132812 122.929688 -88.78125 106.265625 -92.71875 C 93.296875 -95.726562 81.195312 -99.023438 69.96875 -102.609375 C 58.738281 -106.203125 49.070312 -110.832031 40.96875 -116.5 C 32.875 -122.175781 26.453125 -129.238281 21.703125 -137.6875 C 16.953125 -146.132812 14.578125 -156.492188 14.578125 -168.765625 L 14.578125 -169.453125 C 14.578125 -180.796875 16.773438 -191.210938 21.171875 -200.703125 C 25.578125 -210.203125 31.769531 -218.363281 39.75 -225.1875 C 47.738281 -232.019531 57.578125 -237.398438 69.265625 -241.328125 C 80.960938 -245.265625 94.101562 -247.234375 108.6875 -247.234375 C 129.289062 -247.234375 147.8125 -244.515625 164.25 -239.078125 C 180.6875 -233.640625 195.503906 -225.597656 208.703125 -214.953125 L 175.015625 -167.375 C 163.898438 -175.25 152.4375 -181.207031 140.625 -185.25 C 128.820312 -189.300781 117.597656 -191.328125 106.953125 -191.328125 C 98.847656 -191.328125 92.769531 -189.820312 88.71875 -186.8125 C 84.664062 -183.8125 82.640625 -180.109375 82.640625 -175.703125 L 82.640625 -175.015625 C 82.640625 -169.460938 85.472656 -165.0625 91.140625 -161.8125 C 96.816406 -158.570312 108.109375 -155.101562 125.015625 -151.40625 C 152.554688 -145.382812 174.488281 -136.929688 190.8125 -126.046875 C 207.132812 -115.171875 215.296875 -98.390625 215.296875 -75.703125 L 215.296875 -75 C 215.296875 -62.738281 212.921875 -51.6875 208.171875 -41.84375 C 203.429688 -32 196.773438 -23.660156 188.203125 -16.828125 C 179.640625 -10.003906 169.28125 -4.796875 157.125 -1.203125 C 144.976562 2.378906 131.609375 4.171875 117.015625 4.171875 Z M 117.015625 4.171875 "/></g></g></g><g fill="#ffffff" fill-opacity="1"><g transform="translate(769.429052, 330.47127)"><g><path d="M 94.109375 -259.75 L 131.609375 -316 L 194.453125 -296.90625 L 143.0625 -259.75 Z M 21.53125 0 L 21.53125 -243.078125 L 217.03125 -243.078125 L 217.03125 -186.125 L 88.203125 -186.125 L 88.203125 -148.96875 L 204.875 -148.96875 L 204.875 -95.84375 L 88.203125 -95.84375 L 88.203125 -57.296875 L 218.765625 -57.296875 L 218.765625 0 Z M 21.53125 0 "/></g></g></g><g fill="#ffffff" fill-opacity="1"><g transform="translate(999.645894, 330.47127)"><g><path d="M 144.109375 4.859375 C 125.359375 4.859375 107.992188 1.5625 92.015625 -5.03125 C 76.046875 -11.632812 62.273438 -20.546875 50.703125 -31.765625 C 39.128906 -42.992188 30.039062 -56.304688 23.4375 -71.703125 C 16.84375 -87.097656 13.546875 -103.476562 13.546875 -120.84375 L 13.546875 -121.53125 C 13.546875 -138.894531 16.898438 -155.273438 23.609375 -170.671875 C 30.328125 -186.066406 39.472656 -199.492188 51.046875 -210.953125 C 62.617188 -222.410156 76.445312 -231.4375 92.53125 -238.03125 C 108.625 -244.632812 126.046875 -247.9375 144.796875 -247.9375 C 163.554688 -247.9375 180.921875 -244.632812 196.890625 -238.03125 C 212.859375 -231.4375 226.628906 -222.523438 238.203125 -211.296875 C 249.785156 -200.066406 258.875 -186.753906 265.46875 -171.359375 C 272.070312 -155.972656 275.375 -139.597656 275.375 -122.234375 L 275.375 -121.53125 C 275.375 -104.175781 272.015625 -87.800781 265.296875 -72.40625 C 258.585938 -57.007812 249.441406 -43.582031 237.859375 -32.125 C 226.285156 -20.664062 212.453125 -11.632812 196.359375 -5.03125 C 180.273438 1.5625 162.859375 4.859375 144.109375 4.859375 Z M 144.796875 -55.90625 C 154.054688 -55.90625 162.445312 -57.640625 169.96875 -61.109375 C 177.5 -64.585938 183.925781 -69.273438 189.25 -75.171875 C 194.570312 -81.078125 198.738281 -87.960938 201.75 -95.828125 C 204.757812 -103.703125 206.265625 -112.039062 206.265625 -120.84375 L 206.265625 -121.53125 C 206.265625 -130.332031 204.757812 -138.722656 201.75 -146.703125 C 198.738281 -154.691406 194.515625 -161.640625 189.078125 -167.546875 C 183.640625 -173.453125 177.097656 -178.195312 169.453125 -181.78125 C 161.816406 -185.375 153.367188 -187.171875 144.109375 -187.171875 C 134.847656 -187.171875 126.394531 -185.429688 118.75 -181.953125 C 111.113281 -178.484375 104.632812 -173.796875 99.3125 -167.890625 C 93.988281 -161.992188 89.820312 -155.109375 86.8125 -147.234375 C 83.800781 -139.359375 82.296875 -131.023438 82.296875 -122.234375 L 82.296875 -121.53125 C 82.296875 -112.738281 83.800781 -104.347656 86.8125 -96.359375 C 89.820312 -88.367188 94.046875 -81.421875 99.484375 -75.515625 C 104.921875 -69.617188 111.515625 -64.875 119.265625 -61.28125 C 127.023438 -57.695312 135.535156 -55.90625 144.796875 -55.90625 Z M 144.796875 -55.90625 "/></g></g></g></g></g></g><g transform="matrix(1, 0, 0, 1, 264, 2)"><g clip-path="url(#37ccaa44ff)"><g fill="#f48221" fill-opacity="1"><g transform="translate(262.877173, 86.116138)"><g><path d="M -99.5625 -1.71875 L -2.40625 240.3125 L -76.5625 240.3125 L -131.140625 88.234375 L -186.078125 240.3125 L -258.859375 240.3125 L -161.359375 -1.71875 Z M -99.5625 -1.71875 "/></g></g></g></g></g><g clip-path="url(#e3dba56141)"><g transform="matrix(1, 0, 0, 1, 373, 282)"><g clip-path="url(#c626fabe1d)"><g clip-path="url(#9a91c93eaf)"><path fill="#f48221" d="M 0.652344 0.332031 L 46.101562 0.332031 L 46.101562 45.257812 L 0.652344 45.257812 Z M 0.652344 0.332031 " fill-opacity="1" fill-rule="nonzero"/></g></g></g></g><g clip-path="url(#f6999e725e)"><g transform="matrix(1, 0, 0, 1, 11, 380)"><g clip-path="url(#0eb067aad8)"><g fill="#ffffff" fill-opacity="1"><g transform="translate(0.869623, 55.326356)"><g><path d="M 24.734375 0.71875 C 21.648438 0.71875 18.785156 0.160156 16.140625 -0.953125 C 13.503906 -2.078125 11.222656 -3.609375 9.296875 -5.546875 C 7.378906 -7.492188 5.878906 -9.785156 4.796875 -12.421875 C 3.722656 -15.066406 3.1875 -17.890625 3.1875 -20.890625 L 3.1875 -21.015625 C 3.1875 -24.015625 3.722656 -26.828125 4.796875 -29.453125 C 5.878906 -32.078125 7.378906 -34.378906 9.296875 -36.359375 C 11.222656 -38.335938 13.523438 -39.894531 16.203125 -41.03125 C 18.890625 -42.175781 21.851562 -42.75 25.09375 -42.75 C 27.0625 -42.75 28.851562 -42.585938 30.46875 -42.265625 C 32.09375 -41.953125 33.566406 -41.515625 34.890625 -40.953125 C 36.210938 -40.390625 37.429688 -39.707031 38.546875 -38.90625 C 39.671875 -38.101562 40.710938 -37.222656 41.671875 -36.265625 L 35.78125 -29.484375 C 34.144531 -30.960938 32.472656 -32.125 30.765625 -32.96875 C 29.066406 -33.8125 27.160156 -34.234375 25.046875 -34.234375 C 23.273438 -34.234375 21.640625 -33.890625 20.140625 -33.203125 C 18.640625 -32.523438 17.347656 -31.582031 16.265625 -30.375 C 15.191406 -29.175781 14.351562 -27.785156 13.75 -26.203125 C 13.144531 -24.628906 12.84375 -22.941406 12.84375 -21.140625 L 12.84375 -21.015625 C 12.84375 -19.210938 13.144531 -17.507812 13.75 -15.90625 C 14.351562 -14.3125 15.179688 -12.910156 16.234375 -11.703125 C 17.296875 -10.503906 18.578125 -9.554688 20.078125 -8.859375 C 21.585938 -8.160156 23.242188 -7.8125 25.046875 -7.8125 C 27.441406 -7.8125 29.46875 -8.25 31.125 -9.125 C 32.789062 -10.007812 34.445312 -11.210938 36.09375 -12.734375 L 41.96875 -6.78125 C 40.882812 -5.625 39.765625 -4.582031 38.609375 -3.65625 C 37.453125 -2.738281 36.179688 -1.945312 34.796875 -1.28125 C 33.410156 -0.625 31.894531 -0.128906 30.25 0.203125 C 28.613281 0.546875 26.773438 0.71875 24.734375 0.71875 Z M 24.734375 0.71875 "/></g></g></g><g fill="#ffffff" fill-opacity="1"><g transform="translate(67.394059, 55.326356)"><g><path d="M 22.578125 0.65625 C 16.929688 0.65625 12.488281 -0.898438 9.25 -4.015625 C 6.007812 -7.140625 4.390625 -11.804688 4.390625 -18.015625 L 4.390625 -42.03125 L 13.625 -42.03125 L 13.625 -18.25 C 13.625 -14.8125 14.425781 -12.21875 16.03125 -10.46875 C 17.632812 -8.726562 19.859375 -7.859375 22.703125 -7.859375 C 25.546875 -7.859375 27.765625 -8.695312 29.359375 -10.375 C 30.960938 -12.0625 31.765625 -14.585938 31.765625 -17.953125 L 31.765625 -42.03125 L 41.015625 -42.03125 L 41.015625 -18.3125 C 41.015625 -15.113281 40.582031 -12.332031 39.71875 -9.96875 C 38.863281 -7.601562 37.632812 -5.628906 36.03125 -4.046875 C 34.425781 -2.472656 32.484375 -1.296875 30.203125 -0.515625 C 27.921875 0.265625 25.378906 0.65625 22.578125 0.65625 Z M 22.578125 0.65625 "/></g></g></g><g fill="#ffffff" fill-opacity="1"><g transform="translate(134.999108, 55.326356)"><g><path d="M 5.46875 -42.03125 L 14.71875 -42.03125 L 14.71875 0 L 5.46875 0 Z M 5.46875 -42.03125 "/></g></g></g><g fill="#ffffff" fill-opacity="1"><g transform="translate(177.390112, 55.326356)"><g><path d="M 20 0.59375 C 16.789062 0.59375 13.644531 0.046875 10.5625 -1.046875 C 7.476562 -2.148438 4.675781 -3.84375 2.15625 -6.125 L 7.625 -12.671875 C 9.550781 -11.109375 11.523438 -9.863281 13.546875 -8.9375 C 15.566406 -8.019531 17.773438 -7.5625 20.171875 -7.5625 C 22.097656 -7.5625 23.585938 -7.910156 24.640625 -8.609375 C 25.703125 -9.316406 26.234375 -10.289062 26.234375 -11.53125 L 26.234375 -11.65625 C 26.234375 -12.25 26.125 -12.773438 25.90625 -13.234375 C 25.6875 -13.703125 25.265625 -14.132812 24.640625 -14.53125 C 24.023438 -14.925781 23.164062 -15.320312 22.0625 -15.71875 C 20.96875 -16.125 19.539062 -16.550781 17.78125 -17 C 15.65625 -17.519531 13.726562 -18.097656 12 -18.734375 C 10.28125 -19.378906 8.820312 -20.171875 7.625 -21.109375 C 6.425781 -22.046875 5.492188 -23.210938 4.828125 -24.609375 C 4.171875 -26.015625 3.84375 -27.757812 3.84375 -29.84375 L 3.84375 -29.96875 C 3.84375 -31.882812 4.203125 -33.613281 4.921875 -35.15625 C 5.640625 -36.695312 6.648438 -38.023438 7.953125 -39.140625 C 9.253906 -40.265625 10.804688 -41.128906 12.609375 -41.734375 C 14.410156 -42.335938 16.390625 -42.640625 18.546875 -42.640625 C 21.628906 -42.640625 24.460938 -42.175781 27.046875 -41.25 C 29.628906 -40.332031 32.003906 -39.015625 34.171875 -37.296875 L 29.359375 -30.328125 C 27.484375 -31.609375 25.644531 -32.617188 23.84375 -33.359375 C 22.039062 -34.097656 20.238281 -34.46875 18.4375 -34.46875 C 16.632812 -34.46875 15.28125 -34.113281 14.375 -33.40625 C 13.476562 -32.707031 13.03125 -31.835938 13.03125 -30.796875 L 13.03125 -30.6875 C 13.03125 -30 13.160156 -29.40625 13.421875 -28.90625 C 13.679688 -28.40625 14.148438 -27.957031 14.828125 -27.5625 C 15.515625 -27.164062 16.445312 -26.785156 17.625 -26.421875 C 18.800781 -26.054688 20.289062 -25.632812 22.09375 -25.15625 C 24.21875 -24.59375 26.109375 -23.960938 27.765625 -23.265625 C 29.429688 -22.566406 30.832031 -21.726562 31.96875 -20.75 C 33.113281 -19.769531 33.972656 -18.617188 34.546875 -17.296875 C 35.128906 -15.972656 35.421875 -14.390625 35.421875 -12.546875 L 35.421875 -12.4375 C 35.421875 -10.351562 35.039062 -8.5 34.28125 -6.875 C 33.519531 -5.25 32.457031 -3.882812 31.09375 -2.78125 C 29.738281 -1.6875 28.117188 -0.847656 26.234375 -0.265625 C 24.359375 0.304688 22.28125 0.59375 20 0.59375 Z M 20 0.59375 "/></g></g></g><g fill="#ffffff" fill-opacity="1"><g transform="translate(238.031275, 55.326356)"><g><path d="M 5.46875 -42.03125 L 14.71875 -42.03125 L 14.71875 0 L 5.46875 0 Z M 5.46875 -42.03125 "/></g></g></g><g fill="#ffffff" fill-opacity="1"><g transform="translate(280.422279, 55.326356)"><g><path d="M 5.046875 -42.03125 L 13.578125 -42.03125 L 33.265625 -16.15625 L 33.265625 -42.03125 L 42.390625 -42.03125 L 42.390625 0 L 34.53125 0 L 14.171875 -26.71875 L 14.171875 0 L 5.046875 0 Z M 5.046875 -42.03125 "/></g></g></g><g fill="#ffffff" fill-opacity="1"><g transform="translate(350.068459, 55.326356)"><g><path d="M 5.046875 -42.03125 L 36.75 -42.03125 L 36.75 -33.8125 L 14.234375 -33.8125 L 14.234375 -25.28125 L 34.046875 -25.28125 L 34.046875 -17.046875 L 14.234375 -17.046875 L 14.234375 -8.21875 L 37.046875 -8.21875 L 37.046875 0 L 5.046875 0 Z M 5.046875 -42.03125 "/></g></g></g><g fill="#ffffff" fill-opacity="1"><g transform="translate(412.510632, 55.326356)"><g><path d="M 20 0.59375 C 16.789062 0.59375 13.644531 0.046875 10.5625 -1.046875 C 7.476562 -2.148438 4.675781 -3.84375 2.15625 -6.125 L 7.625 -12.671875 C 9.550781 -11.109375 11.523438 -9.863281 13.546875 -8.9375 C 15.566406 -8.019531 17.773438 -7.5625 20.171875 -7.5625 C 22.097656 -7.5625 23.585938 -7.910156 24.640625 -8.609375 C 25.703125 -9.316406 26.234375 -10.289062 26.234375 -11.53125 L 26.234375 -11.65625 C 26.234375 -12.25 26.125 -12.773438 25.90625 -13.234375 C 25.6875 -13.703125 25.265625 -14.132812 24.640625 -14.53125 C 24.023438 -14.925781 23.164062 -15.320312 22.0625 -15.71875 C 20.96875 -16.125 19.539062 -16.550781 17.78125 -17 C 15.65625 -17.519531 13.726562 -18.097656 12 -18.734375 C 10.28125 -19.378906 8.820312 -20.171875 7.625 -21.109375 C 6.425781 -22.046875 5.492188 -23.210938 4.828125 -24.609375 C 4.171875 -26.015625 3.84375 -27.757812 3.84375 -29.84375 L 3.84375 -29.96875 C 3.84375 -31.882812 4.203125 -33.613281 4.921875 -35.15625 C 5.640625 -36.695312 6.648438 -38.023438 7.953125 -39.140625 C 9.253906 -40.265625 10.804688 -41.128906 12.609375 -41.734375 C 14.410156 -42.335938 16.390625 -42.640625 18.546875 -42.640625 C 21.628906 -42.640625 24.460938 -42.175781 27.046875 -41.25 C 29.628906 -40.332031 32.003906 -39.015625 34.171875 -37.296875 L 29.359375 -30.328125 C 27.484375 -31.609375 25.644531 -32.617188 23.84375 -33.359375 C 22.039062 -34.097656 20.238281 -34.46875 18.4375 -34.46875 C 16.632812 -34.46875 15.28125 -34.113281 14.375 -33.40625 C 13.476562 -32.707031 13.03125 -31.835938 13.03125 -30.796875 L 13.03125 -30.6875 C 13.03125 -30 13.160156 -29.40625 13.421875 -28.90625 C 13.679688 -28.40625 14.148438 -27.957031 14.828125 -27.5625 C 15.515625 -27.164062 16.445312 -26.785156 17.625 -26.421875 C 18.800781 -26.054688 20.289062 -25.632812 22.09375 -25.15625 C 24.21875 -24.59375 26.109375 -23.960938 27.765625 -23.265625 C 29.429688 -22.566406 30.832031 -21.726562 31.96875 -20.75 C 33.113281 -19.769531 33.972656 -18.617188 34.546875 -17.296875 C 35.128906 -15.972656 35.421875 -14.390625 35.421875 -12.546875 L 35.421875 -12.4375 C 35.421875 -10.351562 35.039062 -8.5 34.28125 -6.875 C 33.519531 -5.25 32.457031 -3.882812 31.09375 -2.78125 C 29.738281 -1.6875 28.117188 -0.847656 26.234375 -0.265625 C 24.359375 0.304688 22.28125 0.59375 20 0.59375 Z M 20 0.59375 "/></g></g></g><g fill="#ffffff" fill-opacity="1"><g transform="translate(473.151795, 55.326356)"><g/></g></g><g fill="#ffffff" fill-opacity="1"><g transform="translate(513.381575, 55.326356)"><g><path d="M 28.46875 -4.078125 C 26.738281 -2.679688 24.863281 -1.550781 22.84375 -0.6875 C 20.820312 0.164062 18.59375 0.59375 16.15625 0.59375 C 14.15625 0.59375 12.289062 0.316406 10.5625 -0.234375 C 8.84375 -0.796875 7.351562 -1.609375 6.09375 -2.671875 C 4.832031 -3.734375 3.84375 -5.003906 3.125 -6.484375 C 2.40625 -7.960938 2.046875 -9.644531 2.046875 -11.53125 L 2.046875 -11.65625 C 2.046875 -14.332031 2.742188 -16.617188 4.140625 -18.515625 C 5.546875 -20.421875 7.566406 -21.972656 10.203125 -23.171875 C 9.160156 -24.617188 8.410156 -26.019531 7.953125 -27.375 C 7.492188 -28.738281 7.265625 -30.140625 7.265625 -31.578125 L 7.265625 -31.703125 C 7.265625 -33.140625 7.546875 -34.519531 8.109375 -35.84375 C 8.671875 -37.164062 9.488281 -38.335938 10.5625 -39.359375 C 11.644531 -40.378906 12.976562 -41.195312 14.5625 -41.8125 C 16.144531 -42.4375 17.957031 -42.75 20 -42.75 C 21.800781 -42.75 23.421875 -42.476562 24.859375 -41.9375 C 26.296875 -41.394531 27.535156 -40.644531 28.578125 -39.6875 C 29.617188 -38.726562 30.421875 -37.609375 30.984375 -36.328125 C 31.546875 -35.046875 31.828125 -33.664062 31.828125 -32.1875 L 31.828125 -32.0625 C 31.828125 -30.664062 31.613281 -29.394531 31.1875 -28.25 C 30.769531 -27.113281 30.171875 -26.101562 29.390625 -25.21875 C 28.609375 -24.34375 27.675781 -23.5625 26.59375 -22.875 C 25.519531 -22.195312 24.320312 -21.597656 23 -21.078125 L 28.578125 -15.484375 C 29.265625 -16.566406 29.945312 -17.71875 30.625 -18.9375 C 31.300781 -20.164062 31.984375 -21.421875 32.671875 -22.703125 L 39.453125 -18.96875 C 38.648438 -17.488281 37.785156 -15.988281 36.859375 -14.46875 C 35.941406 -12.945312 34.960938 -11.488281 33.921875 -10.09375 L 40.109375 -3.90625 L 33.328125 0.84375 Z M 18.1875 -25.9375 C 20.03125 -26.625 21.421875 -27.394531 22.359375 -28.25 C 23.304688 -29.113281 23.78125 -30.207031 23.78125 -31.53125 L 23.78125 -31.640625 C 23.78125 -32.847656 23.410156 -33.800781 22.671875 -34.5 C 21.929688 -35.195312 20.976562 -35.546875 19.8125 -35.546875 C 18.570312 -35.546875 17.582031 -35.15625 16.84375 -34.375 C 16.101562 -33.59375 15.734375 -32.5625 15.734375 -31.28125 L 15.734375 -31.171875 C 15.734375 -30.242188 15.921875 -29.390625 16.296875 -28.609375 C 16.679688 -27.828125 17.3125 -26.9375 18.1875 -25.9375 Z M 17.234375 -6.96875 C 18.273438 -6.96875 19.304688 -7.175781 20.328125 -7.59375 C 21.347656 -8.007812 22.335938 -8.601562 23.296875 -9.375 L 15.25 -17.53125 C 13.851562 -16.8125 12.851562 -15.972656 12.25 -15.015625 C 11.644531 -14.054688 11.34375 -13.054688 11.34375 -12.015625 L 11.34375 -11.890625 C 11.34375 -10.410156 11.894531 -9.21875 13 -8.3125 C 14.101562 -7.414062 15.515625 -6.96875 17.234375 -6.96875 Z M 17.234375 -6.96875 "/></g></g></g><g fill="#ffffff" fill-opacity="1"><g transform="translate(577.384604, 55.326356)"><g/></g></g><g fill="#ffffff" fill-opacity="1"><g transform="translate(617.614355, 55.326356)"><g><path d="M 5.046875 -42.03125 L 15.015625 -42.03125 L 26.0625 -24.265625 L 37.109375 -42.03125 L 47.078125 -42.03125 L 47.078125 0 L 37.890625 0 L 37.890625 -27.4375 L 26.0625 -9.484375 L 25.8125 -9.484375 L 14.109375 -27.265625 L 14.109375 0 L 5.046875 0 Z M 5.046875 -42.03125 "/></g></g></g><g fill="#ffffff" fill-opacity="1"><g transform="translate(691.943137, 55.326356)"><g><path d="M 5.046875 -42.03125 L 36.75 -42.03125 L 36.75 -33.8125 L 14.234375 -33.8125 L 14.234375 -25.28125 L 34.046875 -25.28125 L 34.046875 -17.046875 L 14.234375 -17.046875 L 14.234375 -8.21875 L 37.046875 -8.21875 L 37.046875 0 L 5.046875 0 Z M 5.046875 -42.03125 "/></g></g></g><g fill="#ffffff" fill-opacity="1"><g transform="translate(754.38531, 55.326356)"><g><path d="M 5.046875 -42.03125 L 13.578125 -42.03125 L 33.265625 -16.15625 L 33.265625 -42.03125 L 42.390625 -42.03125 L 42.390625 0 L 34.53125 0 L 14.171875 -26.71875 L 14.171875 0 L 5.046875 0 Z M 5.046875 -42.03125 "/></g></g></g><g fill="#ffffff" fill-opacity="1"><g transform="translate(824.031521, 55.326356)"><g><path d="M 22.578125 0.65625 C 16.929688 0.65625 12.488281 -0.898438 9.25 -4.015625 C 6.007812 -7.140625 4.390625 -11.804688 4.390625 -18.015625 L 4.390625 -42.03125 L 13.625 -42.03125 L 13.625 -18.25 C 13.625 -14.8125 14.425781 -12.21875 16.03125 -10.46875 C 17.632812 -8.726562 19.859375 -7.859375 22.703125 -7.859375 C 25.546875 -7.859375 27.765625 -8.695312 29.359375 -10.375 C 30.960938 -12.0625 31.765625 -14.585938 31.765625 -17.953125 L 31.765625 -42.03125 L 41.015625 -42.03125 L 41.015625 -18.3125 C 41.015625 -15.113281 40.582031 -12.332031 39.71875 -9.96875 C 38.863281 -7.601562 37.632812 -5.628906 36.03125 -4.046875 C 34.425781 -2.472656 32.484375 -1.296875 30.203125 -0.515625 C 27.921875 0.265625 25.378906 0.65625 22.578125 0.65625 Z M 22.578125 0.65625 "/></g></g></g><g fill="#ffffff" fill-opacity="1"><g transform="translate(891.63657, 55.326356)"><g><path d="M 5.46875 -42.03125 L 14.71875 -42.03125 L 14.71875 0 L 5.46875 0 Z M 5.46875 -42.03125 "/></g></g></g><g fill="#ffffff" fill-opacity="1"><g transform="translate(934.027542, 55.326356)"><g><path d="M 20 0.59375 C 16.789062 0.59375 13.644531 0.046875 10.5625 -1.046875 C 7.476562 -2.148438 4.675781 -3.84375 2.15625 -6.125 L 7.625 -12.671875 C 9.550781 -11.109375 11.523438 -9.863281 13.546875 -8.9375 C 15.566406 -8.019531 17.773438 -7.5625 20.171875 -7.5625 C 22.097656 -7.5625 23.585938 -7.910156 24.640625 -8.609375 C 25.703125 -9.316406 26.234375 -10.289062 26.234375 -11.53125 L 26.234375 -11.65625 C 26.234375 -12.25 26.125 -12.773438 25.90625 -13.234375 C 25.6875 -13.703125 25.265625 -14.132812 24.640625 -14.53125 C 24.023438 -14.925781 23.164062 -15.320312 22.0625 -15.71875 C 20.96875 -16.125 19.539062 -16.550781 17.78125 -17 C 15.65625 -17.519531 13.726562 -18.097656 12 -18.734375 C 10.28125 -19.378906 8.820312 -20.171875 7.625 -21.109375 C 6.425781 -22.046875 5.492188 -23.210938 4.828125 -24.609375 C 4.171875 -26.015625 3.84375 -27.757812 3.84375 -29.84375 L 3.84375 -29.96875 C 3.84375 -31.882812 4.203125 -33.613281 4.921875 -35.15625 C 5.640625 -36.695312 6.648438 -38.023438 7.953125 -39.140625 C 9.253906 -40.265625 10.804688 -41.128906 12.609375 -41.734375 C 14.410156 -42.335938 16.390625 -42.640625 18.546875 -42.640625 C 21.628906 -42.640625 24.460938 -42.175781 27.046875 -41.25 C 29.628906 -40.332031 32.003906 -39.015625 34.171875 -37.296875 L 29.359375 -30.328125 C 27.484375 -31.609375 25.644531 -32.617188 23.84375 -33.359375 C 22.039062 -34.097656 20.238281 -34.46875 18.4375 -34.46875 C 16.632812 -34.46875 15.28125 -34.113281 14.375 -33.40625 C 13.476562 -32.707031 13.03125 -31.835938 13.03125 -30.796875 L 13.03125 -30.6875 C 13.03125 -30 13.160156 -29.40625 13.421875 -28.90625 C 13.679688 -28.40625 14.148438 -27.957031 14.828125 -27.5625 C 15.515625 -27.164062 16.445312 -26.785156 17.625 -26.421875 C 18.800781 -26.054688 20.289062 -25.632812 22.09375 -25.15625 C 24.21875 -24.59375 26.109375 -23.960938 27.765625 -23.265625 C 29.429688 -22.566406 30.832031 -21.726562 31.96875 -20.75 C 33.113281 -19.769531 33.972656 -18.617188 34.546875 -17.296875 C 35.128906 -15.972656 35.421875 -14.390625 35.421875 -12.546875 L 35.421875 -12.4375 C 35.421875 -10.351562 35.039062 -8.5 34.28125 -6.875 C 33.519531 -5.25 32.457031 -3.882812 31.09375 -2.78125 C 29.738281 -1.6875 28.117188 -0.847656 26.234375 -0.265625 C 24.359375 0.304688 22.28125 0.59375 20 0.59375 Z M 20 0.59375 "/></g></g></g><g fill="#ffffff" fill-opacity="1"><g transform="translate(994.668735, 55.326356)"><g><path d="M 5.046875 -42.03125 L 36.75 -42.03125 L 36.75 -33.8125 L 14.234375 -33.8125 L 14.234375 -25.28125 L 34.046875 -25.28125 L 34.046875 -17.046875 L 14.234375 -17.046875 L 14.234375 -8.21875 L 37.046875 -8.21875 L 37.046875 0 L 5.046875 0 Z M 5.046875 -42.03125 "/></g></g></g><g fill="#ffffff" fill-opacity="1"><g transform="translate(1057.110907, 55.326356)"><g><path d="M 5.046875 -42.03125 L 24.265625 -42.03125 C 29.585938 -42.03125 33.671875 -40.609375 36.515625 -37.765625 C 38.910156 -35.367188 40.109375 -32.164062 40.109375 -28.15625 L 40.109375 -28.046875 C 40.109375 -24.640625 39.273438 -21.863281 37.609375 -19.71875 C 35.953125 -17.582031 33.785156 -16.015625 31.109375 -15.015625 L 41.375 0 L 30.5625 0 L 21.5625 -13.453125 L 14.296875 -13.453125 L 14.296875 0 L 5.046875 0 Z M 23.65625 -21.609375 C 25.9375 -21.609375 27.6875 -22.148438 28.90625 -23.234375 C 30.132812 -24.316406 30.75 -25.757812 30.75 -27.5625 L 30.75 -27.6875 C 30.75 -29.6875 30.109375 -31.1875 28.828125 -32.1875 C 27.546875 -33.1875 25.765625 -33.6875 23.484375 -33.6875 L 14.296875 -33.6875 L 14.296875 -21.609375 Z M 23.65625 -21.609375 "/></g></g></g><g fill="#ffffff" fill-opacity="1"><g transform="translate(1122.734913, 55.326356)"><g><path d="M 5.46875 -42.03125 L 14.71875 -42.03125 L 14.71875 0 L 5.46875 0 Z M 5.46875 -42.03125 "/></g></g></g><g fill="#ffffff" fill-opacity="1"><g transform="translate(1165.125827, 55.326356)"><g><path d="M 5.046875 -42.03125 L 36.75 -42.03125 L 36.75 -33.8125 L 14.234375 -33.8125 L 14.234375 -25.28125 L 34.046875 -25.28125 L 34.046875 -17.046875 L 14.234375 -17.046875 L 14.234375 -8.21875 L 37.046875 -8.21875 L 37.046875 0 L 5.046875 0 Z M 5.046875 -42.03125 "/></g></g></g><g fill="#ffffff" fill-opacity="1"><g transform="translate(1227.568, 55.326356)"><g><path d="M 20 0.59375 C 16.789062 0.59375 13.644531 0.046875 10.5625 -1.046875 C 7.476562 -2.148438 4.675781 -3.84375 2.15625 -6.125 L 7.625 -12.671875 C 9.550781 -11.109375 11.523438 -9.863281 13.546875 -8.9375 C 15.566406 -8.019531 17.773438 -7.5625 20.171875 -7.5625 C 22.097656 -7.5625 23.585938 -7.910156 24.640625 -8.609375 C 25.703125 -9.316406 26.234375 -10.289062 26.234375 -11.53125 L 26.234375 -11.65625 C 26.234375 -12.25 26.125 -12.773438 25.90625 -13.234375 C 25.6875 -13.703125 25.265625 -14.132812 24.640625 -14.53125 C 24.023438 -14.925781 23.164062 -15.320312 22.0625 -15.71875 C 20.96875 -16.125 19.539062 -16.550781 17.78125 -17 C 15.65625 -17.519531 13.726562 -18.097656 12 -18.734375 C 10.28125 -19.378906 8.820312 -20.171875 7.625 -21.109375 C 6.425781 -22.046875 5.492188 -23.210938 4.828125 -24.609375 C 4.171875 -26.015625 3.84375 -27.757812 3.84375 -29.84375 L 3.84375 -29.96875 C 3.84375 -31.882812 4.203125 -33.613281 4.921875 -35.15625 C 5.640625 -36.695312 6.648438 -38.023438 7.953125 -39.140625 C 9.253906 -40.265625 10.804688 -41.128906 12.609375 -41.734375 C 14.410156 -42.335938 16.390625 -42.640625 18.546875 -42.640625 C 21.628906 -42.640625 24.460938 -42.175781 27.046875 -41.25 C 29.628906 -40.332031 32.003906 -39.015625 34.171875 -37.296875 L 29.359375 -30.328125 C 27.484375 -31.609375 25.644531 -32.617188 23.84375 -33.359375 C 22.039062 -34.097656 20.238281 -34.46875 18.4375 -34.46875 C 16.632812 -34.46875 15.28125 -34.113281 14.375 -33.40625 C 13.476562 -32.707031 13.03125 -31.835938 13.03125 -30.796875 L 13.03125 -30.6875 C 13.03125 -30 13.160156 -29.40625 13.421875 -28.90625 C 13.679688 -28.40625 14.148438 -27.957031 14.828125 -27.5625 C 15.515625 -27.164062 16.445312 -26.785156 17.625 -26.421875 C 18.800781 -26.054688 20.289062 -25.632812 22.09375 -25.15625 C 24.21875 -24.59375 26.109375 -23.960938 27.765625 -23.265625 C 29.429688 -22.566406 30.832031 -21.726562 31.96875 -20.75 C 33.113281 -19.769531 33.972656 -18.617188 34.546875 -17.296875 C 35.128906 -15.972656 35.421875 -14.390625 35.421875 -12.546875 L 35.421875 -12.4375 C 35.421875 -10.351562 35.039062 -8.5 34.28125 -6.875 C 33.519531 -5.25 32.457031 -3.882812 31.09375 -2.78125 C 29.738281 -1.6875 28.117188 -0.847656 26.234375 -0.265625 C 24.359375 0.304688 22.28125 0.59375 20 0.59375 Z M 20 0.59375 "/></g></g></g></g></g></g></g></g></svg>